<mxfile host="d3093161-22da-4a69-b46f-9df0a3120caa" modified="2020-08-12T07:42:00.589Z" agent="5.0 (Macintosh; Intel Mac OS X 10_15_6) AppleWebKit/537.36 (KHTML, like Gecko) Code/1.47.3 Chrome/78.0.3904.130 Electron/7.3.2 Safari/537.36" etag="ltTAEP4KUTIR2gGnBwi-" version="13.1.3">
    <diagram id="6hGFLwfOUW9BJ-s0fimq" name="Page-1">
        <mxGraphModel dx="343" dy="411" grid="1" gridSize="10" guides="1" tooltips="1" connect="1" arrows="1" fold="1" page="1" pageScale="1" pageWidth="827" pageHeight="1169" math="0" shadow="0">
            <root>
                <mxCell id="0"/>
                <mxCell id="1" parent="0"/>
                <mxCell id="2" value="Setting&amp;nbsp; Base&lt;br&gt;Parameters" style="rounded=1;whiteSpace=wrap;html=1;" vertex="1" parent="1">
                    <mxGeometry x="120" y="80" width="120" height="60" as="geometry"/>
                </mxCell>
                <mxCell id="4" value="1. Del&amp;nbsp; empty ROIs&lt;br&gt;2. check lock plan&lt;br&gt;3. check ref.point&lt;br&gt;4. preparing plan" style="rounded=0;whiteSpace=wrap;html=1;" vertex="1" parent="1">
                    <mxGeometry x="120" y="180" width="120" height="60" as="geometry"/>
                </mxCell>
                <mxCell id="5" value="IMRT Setting" style="rounded=0;whiteSpace=wrap;html=1;" vertex="1" parent="1">
                    <mxGeometry x="120" y="300" width="120" height="60" as="geometry"/>
                </mxCell>
                <mxCell id="6" value="" style="rounded=0;whiteSpace=wrap;html=1;" vertex="1" parent="1">
                    <mxGeometry x="120" y="440" width="120" height="60" as="geometry"/>
                </mxCell>
            </root>
        </mxGraphModel>
    </diagram>
</mxfile>